# xmcd
#
# Track frame offsets: 
#        151
#        22927
#        40449
#        61109
#        84752
#        105591
#        121725
#        140766
#        158673
#        174423
#        199000
#        220881
#
# Disc length: 3171 seconds
#
# Revision: 0
# Processed by: cddbd v1.5.1PL2 Copyright (c) Steve Scherf et al.
# Submitted via: ExactAudioCopy v0.95b4
#
DISCID=940c610c
DTITLE=Dana Gillespie - Back To The Blues
DYEAR=1900
DGENRE=Blues
TTITLE0=Who's Got The Blues To Blame
TTITLE1=Too Blue To Boogie?
TTITLE2=Blue Night
TTITLE3=Baby Blue
TTITLE4=Blue Water
TTITLE5=Back To The Blues
TTITLE6=Travelling Man Blues
TTITLE7=Guardian Blue Angel
TTITLE8=The Sky Will Still Be Blue
TTITLE9=It Makes Me Blue
TTITLE10=Turning Over A Blue Leaf
TTITLE11=Queen Of The Blues
EXTD=
EXTT0=
EXTT1=
EXTT2=
EXTT3=
EXTT4=
EXTT5=
EXTT6=
EXTT7=
EXTT8=
EXTT9=
EXTT10=
EXTT11=
PLAYORDER=
